HIERARCHY
ROOT Root
{
  OFFSET 0.0 0.0 0.0
  CHANNELS 6 Xposition Yposition Zposition Zrotation Yrotation Xrotation
  JOINT Hips
  {
    OFFSET 0.0 100.0 0.0
    CHANNELS 6 Xposition Yposition Zposition Zrotation Yrotation Xrotation
    JOINT Spine1
    {
      OFFSET 5.003913 -0.037094 -0.013727
      CHANNELS 3 Zrotation Yrotation Xrotation
      JOINT Spine2
      {
        OFFSET 7.125363 -1e-06 0.0
        CHANNELS 3 Zrotation Yrotation Xrotation
        JOINT Chest
        {
          OFFSET 7.594027 1e-06 0.0
          CHANNELS 3 Zrotation Yrotation Xrotation
          JOINT Neck1
          {
            OFFSET 26.313086 -0.460272 -0.181672
            CHANNELS 3 Zrotation Yrotation Xrotation
            JOINT Neck2
            {
              OFFSET 8.045911 0.0 0.0
              CHANNELS 3 Zrotation Yrotation Xrotation
              JOINT Head
              {
                OFFSET 6.432774 0.0 0.0
                CHANNELS 3 Zrotation Yrotation Xrotation
                JOINT HeadEnd
                {
                  OFFSET 16.169773 0.06451 0.00362
                  CHANNELS 3 Zrotation Yrotation Xrotation
                }
                JOINT Jaw
                {
                  OFFSET 0.108741 3.12938 0.002639
                  CHANNELS 3 Zrotation Yrotation Xrotation
                }
                JOINT LeftEye
                {
                  OFFSET 4.45173 8.166359 3.206392
                  CHANNELS 3 Zrotation Yrotation Xrotation
                }
                JOINT RightEye
                {
                  OFFSET 4.436895 8.135758 -3.222429
                  CHANNELS 3 Zrotation Yrotation Xrotation
                }
              }
            }
          }
          JOINT LeftShoulder
          {
            OFFSET 23.218927 5.195579 1.621656
            CHANNELS 3 Zrotation Yrotation Xrotation
            JOINT LeftArm
            {
              OFFSET 15.902118 2e-06 -2e-06
              CHANNELS 3 Zrotation Yrotation Xrotation
              JOINT LeftForeArm
              {
                OFFSET 28.739307 0.0 -1e-06
                CHANNELS 3 Zrotation Yrotation Xrotation
                JOINT LeftHand
                {
                  OFFSET 27.093981 -4e-06 0.0
                  CHANNELS 3 Zrotation Yrotation Xrotation
                  JOINT LeftHandThumb1
                  {
                    OFFSET 2.276781 3.380274 0.83384
                    CHANNELS 3 Zrotation Yrotation Xrotation
                    JOINT LeftHandThumb2
                    {
                      OFFSET 4.705309 -1e-06 -1e-06
                      CHANNELS 3 Zrotation Yrotation Xrotation
                      JOINT LeftHandThumb3
                      {
                        OFFSET 2.798515 0.0 3e-06
                        CHANNELS 3 Zrotation Yrotation Xrotation
                        JOINT LeftHandThumbEnd
                        {
                          OFFSET 3.180793 4e-06 -4e-06
                          CHANNELS 3 Zrotation Yrotation Xrotation
                        }
                      }
                    }
                  }
                  JOINT LeftHandIndex1
                  {
                    OFFSET 3.247786 2.352677 0.137192
                    CHANNELS 3 Zrotation Yrotation Xrotation
                    JOINT LeftHandIndex2
                    {
                      OFFSET 6.367095 1e-06 0.0
                      CHANNELS 3 Zrotation Yrotation Xrotation
                      JOINT LeftHandIndex3
                      {
                        OFFSET 3.662364 0.0 0.0
                        CHANNELS 3 Zrotation Yrotation Xrotation
                        JOINT LeftHandIndex4
                        {
                          OFFSET 2.329242 4e-06 -4e-06
                          CHANNELS 3 Zrotation Yrotation Xrotation
                          JOINT LeftHandIndexEnd
                          {
                            OFFSET 2.767823 1e-06 0.0
                            CHANNELS 3 Zrotation Yrotation Xrotation
                          }
                        }
                      }
                    }
                  }
                  JOINT LeftHandMiddle1
                  {
                    OFFSET 3.163612 0.945023 -0.406112
                    CHANNELS 3 Zrotation Yrotation Xrotation
                    JOINT LeftHandMiddle2
                    {
                      OFFSET 6.276789 3e-06 0.0
                      CHANNELS 3 Zrotation Yrotation Xrotation
                      JOINT LeftHandMiddle3
                      {
                        OFFSET 4.35652 -1e-06 4e-06
                        CHANNELS 3 Zrotation Yrotation Xrotation
                        JOINT LeftHandMiddle4
                        {
                          OFFSET 2.996877 0.0 8e-06
                          CHANNELS 3 Zrotation Yrotation Xrotation
                          JOINT LeftHandMiddleEnd
                          {
                            OFFSET 2.323256 3e-06 -4e-06
                            CHANNELS 3 Zrotation Yrotation Xrotation
                          }
                        }
                      }
                    }
                  }
                  JOINT LeftHandRing1
                  {
                    OFFSET 2.882606 -0.309162 0.107445
                    CHANNELS 3 Zrotation Yrotation Xrotation
                    JOINT LeftHandRing2
                    {
                      OFFSET 6.033198 0.0 4e-06
                      CHANNELS 3 Zrotation Yrotation Xrotation
                      JOINT LeftHandRing3
                      {
                        OFFSET 4.350578 3e-06 0.0
                        CHANNELS 3 Zrotation Yrotation Xrotation
                        JOINT LeftHandRing4
                        {
                          OFFSET 2.651321 2e-06 -7e-06
                          CHANNELS 3 Zrotation Yrotation Xrotation
                          JOINT LeftHandRingEnd
                          {
                            OFFSET 1.937663 1e-06 -4e-06
                            CHANNELS 3 Zrotation Yrotation Xrotation
                          }
                        }
                      }
                    }
                  }
                  JOINT LeftHandPinky1
                  {
                    OFFSET 2.865315 -1.525436 0.575687
                    CHANNELS 3 Zrotation Yrotation Xrotation
                    JOINT LeftHandPinky2
                    {
                      OFFSET 5.54936 1e-06 -8e-06
                      CHANNELS 3 Zrotation Yrotation Xrotation
                      JOINT LeftHandPinky3
                      {
                        OFFSET 3.070974 0.0 -4e-06
                        CHANNELS 3 Zrotation Yrotation Xrotation
                        JOINT LeftHandPinky4
                        {
                          OFFSET 1.549672 1e-06 0.0
                          CHANNELS 3 Zrotation Yrotation Xrotation
                          JOINT LeftHandPinkyEnd
                          {
                            OFFSET 1.952123 0.0 0.0
                            CHANNELS 3 Zrotation Yrotation Xrotation
                          }
                        }
                      }
                    }
                  }
                }
              }
            }
          }
          JOINT RightShoulder
          {
            OFFSET 23.161716 5.296122 -1.380114
            CHANNELS 3 Zrotation Yrotation Xrotation
            JOINT RightArm
            {
              OFFSET -16.027195 -2e-06 1.1e-05
              CHANNELS 3 Zrotation Yrotation Xrotation
              JOINT RightForeArm
              {
                OFFSET -28.736639 4e-06 2e-06
                CHANNELS 3 Zrotation Yrotation Xrotation
                JOINT RightHand
                {
                  OFFSET -27.133619 6e-06 0.0
                  CHANNELS 3 Zrotation Yrotation Xrotation
                  JOINT RightHandThumb1
                  {
                    OFFSET -2.274328 -3.351035 -0.83067
                    CHANNELS 3 Zrotation Yrotation Xrotation
                    JOINT RightHandThumb2
                    {
                      OFFSET -4.703594 -3e-06 2e-06
                      CHANNELS 3 Zrotation Yrotation Xrotation
                      JOINT RightHandThumb3
                      {
                        OFFSET -2.794935 -4e-06 -3e-06
                        CHANNELS 3 Zrotation Yrotation Xrotation
                        JOINT RightHandThumbEnd
                        {
                          OFFSET -3.183852 4e-06 1e-06
                          CHANNELS 3 Zrotation Yrotation Xrotation
                        }
                      }
                    }
                  }
                  JOINT RightHandIndex1
                  {
                    OFFSET -3.253496 -2.33755 -0.127667
                    CHANNELS 3 Zrotation Yrotation Xrotation
                    JOINT RightHandIndex2
                    {
                      OFFSET -6.344434 0.0 0.0
                      CHANNELS 3 Zrotation Yrotation Xrotation
                      JOINT RightHandIndex3
                      {
                        OFFSET -3.654871 0.0 -8e-06
                        CHANNELS 3 Zrotation Yrotation Xrotation
                        JOINT RightHandIndex4
                        {
                          OFFSET -2.327586 -1e-06 0.0
                          CHANNELS 3 Zrotation Yrotation Xrotation
                          JOINT RightHandIndexEnd
                          {
                            OFFSET -2.770001 3e-06 8e-06
                            CHANNELS 3 Zrotation Yrotation Xrotation
                          }
                        }
                      }
                    }
                  }
                  JOINT RightHandMiddle1
                  {
                    OFFSET -3.168223 -0.944764 0.411762
                    CHANNELS 3 Zrotation Yrotation Xrotation
                    JOINT RightHandMiddle2
                    {
                      OFFSET -6.266691 -1e-06 -4e-06
                      CHANNELS 3 Zrotation Yrotation Xrotation
                      JOINT RightHandMiddle3
                      {
                        OFFSET -4.348901 0.0 0.0
                        CHANNELS 3 Zrotation Yrotation Xrotation
                        JOINT RightHandMiddle4
                        {
                          OFFSET -3.00024 2e-06 -4e-06
                          CHANNELS 3 Zrotation Yrotation Xrotation
                          JOINT RightHandMiddleEnd
                          {
                            OFFSET -2.321477 -4e-06 -4e-06
                            CHANNELS 3 Zrotation Yrotation Xrotation
                          }
                        }
                      }
                    }
                  }
                  JOINT RightHandRing1
                  {
                    OFFSET -2.885654 0.293261 -0.119232
                    CHANNELS 3 Zrotation Yrotation Xrotation
                    JOINT RightHandRing2
                    {
                      OFFSET -6.032835 -1e-06 -4e-06
                      CHANNELS 3 Zrotation Yrotation Xrotation
                      JOINT RightHandRing3
                      {
                        OFFSET -4.33881 0.0 -4e-06
                        CHANNELS 3 Zrotation Yrotation Xrotation
                        JOINT RightHandRing4
                        {
                          OFFSET -2.654903 -4e-06 -4e-06
                          CHANNELS 3 Zrotation Yrotation Xrotation
                          JOINT RightHandRingEnd
                          {
                            OFFSET -1.935122 0.0 4e-06
                            CHANNELS 3 Zrotation Yrotation Xrotation
                          }
                        }
                      }
                    }
                  }
                  JOINT RightHandPinky1
                  {
                    OFFSET -2.866241 1.503904 -0.60527
                    CHANNELS 3 Zrotation Yrotation Xrotation
                    JOINT RightHandPinky2
                    {
                      OFFSET -5.553177 -2e-06 0.0
                      CHANNELS 3 Zrotation Yrotation Xrotation
                      JOINT RightHandPinky3
                      {
                        OFFSET -3.062664 -1e-06 -4e-06
                        CHANNELS 3 Zrotation Yrotation Xrotation
                        JOINT RightHandPinky4
                        {
                          OFFSET -1.546529 2e-06 4e-06
                          CHANNELS 3 Zrotation Yrotation Xrotation
                          JOINT RightHandPinkyEnd
                          {
                            OFFSET -1.952341 0.0 -4e-06
                            CHANNELS 3 Zrotation Yrotation Xrotation
                          }
                        }
                      }
                    }
                  }
                }
              }
            }
          }
        }
      }
    }
    JOINT LeftLeg
    {
      OFFSET -8.443107 2.567604 10.043214
      CHANNELS 3 Zrotation Yrotation Xrotation
      JOINT LeftShin
      {
        OFFSET 43.229198 1e-06 -1e-06
        CHANNELS 3 Zrotation Yrotation Xrotation
        JOINT LeftFoot
        {
          OFFSET 42.298611 1e-06 1e-06
          CHANNELS 3 Zrotation Yrotation Xrotation
          JOINT LeftToeBase
          {
            OFFSET 14.165858 1e-06 0.0
            CHANNELS 3 Zrotation Yrotation Xrotation
            JOINT LeftToeEnd
            {
              OFFSET 6.7141 -0.234461 0.0
              CHANNELS 3 Zrotation Yrotation Xrotation
            }
          }
        }
      }
    }
    JOINT RightLeg
    {
      OFFSET -8.303923 2.592729 -10.047278
      CHANNELS 3 Zrotation Yrotation Xrotation
      JOINT RightShin
      {
        OFFSET -43.369682 0.0 1e-06
        CHANNELS 3 Zrotation Yrotation Xrotation
        JOINT RightFoot
        {
          OFFSET -42.260784 4e-06 2e-06
          CHANNELS 3 Zrotation Yrotation Xrotation
          JOINT RightToeBase
          {
            OFFSET -14.222245 -2e-06 -1e-06
            CHANNELS 3 Zrotation Yrotation Xrotation
            JOINT RightToeEnd
            {
              OFFSET -6.660062 0.232574 -2e-06
              CHANNELS 3 Zrotation Yrotation Xrotation
            }
          }
        }
      }
    }
  }
}
MOTION
Frames: 4
Frame Time: 0.03333333333333333
0.0 0.0 0.0 0.0 -0.0 0.0 -22.594023 50.004398 206.120728 84.8825 -48.175694 103.221626 18.169781 0.849726 -0.40167 -5.116239 -0.1453 -1.291018 21.551472 1.372866 -2.520791 12.396238 1.546383 3.785263 -2.435833 -1.21231 -0.783485 -24.400564 -5.403585 -0.364489 6e-06 -1e-06 0.0 -0.297175 0.006185 0.041143 0.000166 0.033283 0.06267 0.033691 -0.02754 0.034924 44.209942 -76.678734 -34.516987 71.520493 5.874367 -33.462807 16.905264 -0.602204 0.034406 3.803707 61.326603 13.003484 17.636625 -26.322729 52.411201 -19.466654 -14.395598 29.410393 0.0 -8.774821 -3e-06 15.854595 -17.838051 5.594357 -0.609777 -1.795653 -3.889328 -4.807089 -11.046809 -2.93785 3e-06 -20.976015 -1e-06 -5.019969 -25.033558 -4.031881 5e-06 -0.0 -1e-06 -10.634531 -5.68697 -3.565587 10.573272 -17.922949 -3.113902 3e-06 -13.821211 2e-06 -0.501776 -31.181505 -4.027017 -11.27133 -58.761711 6.608953 -13.982713 -7.150198 -2.875043 13.772726 -8.401488 -3.21824 0.347732 -34.211536 0.771654 -0.963029 -17.733366 2.621019 0.0 -0.0 1e-06 -17.346418 -20.095217 -4.201783 21.757555 -1.638374 3.866427 2e-06 -6.338822 1e-06 -1.697589 -22.591743 -6.194006 -0.0 -3e-06 -3e-06 -107.618576 -79.90831 -62.07666 66.239761 -25.63324 -28.572842 37.759605 -2.440162 -0.30396 61.979622 59.908745 78.134857 22.182116 -20.375898 49.933327 -16.701811 -16.743528 28.476532 -4e-06 -12.6906 -1e-06 16.857536 -18.623632 2.151834 -0.105919 -1.513856 -4.275881 -5.039041 -5.612871 -2.953557 4e-06 -11.02052 -2e-06 -6.111297 -15.895334 -3.840471 -0.0 -1e-06 1e-06 -10.28337 -5.680288 -4.341839 11.028294 -11.302406 -2.372633 -1.384268 -14.238581 -6.320122 -0.625438 -26.924191 -3.827602 -5.004954 -51.540138 -3.326019 -13.708526 -7.363472 -3.72094 18.141148 -14.052741 -3.242674 4e-06 -18.787271 -2e-06 -0.42971 -8.456045 2.555503 -1e-06 1e-06 0.0 -15.923534 -20.094479 -5.473587 30.41921 -7.190826 1.735926 3e-06 -8.162925 -0.0 -1.861901 -22.861467 -6.167942 -2e-06 -3e-06 -1e-06 144.626511 -2.109228 11.94453 94.452354 -1.911095 0.00421 -36.814491 -5.672182 -13.986427 -2.288074 1.22148 3.04358 -1.0 -0.0 0.0 -56.524712 1.051973 -3.204851 110.217033 0.678942 -0.237358 -46.790005 29.935644 -8.343658 -2.154151 0.132231 1.650417 -1.000002 0.0 -0.0 
0.0 0.0 0.0 0.0 -0.0 0.0 -23.021738 50.2514 208.46904 85.714478 -47.823761 103.015625 18.366295 0.338753 -0.297808 -5.137767 -0.44376 -1.419757 21.765791 0.436943 -2.966995 12.068955 3.002494 3.809282 -2.416479 -1.465475 -0.743539 -24.757286 -5.111366 -0.696583 7e-06 -0.0 0.0 -0.28245 0.019982 0.023079 0.006974 0.046746 0.03841 0.04086 -0.011358 0.018882 49.341518 -76.148117 -39.25296 71.571167 5.188411 -32.176334 15.398192 -0.593313 0.100696 2.842773 63.847298 10.219102 17.636641 -26.322733 52.411194 -19.466661 -14.395596 29.410389 -2e-06 -8.774822 -2e-06 15.587006 -17.835512 5.631754 -0.609775 -1.795654 -3.889328 -4.80709 -11.046812 -2.937851 3e-06 -20.976019 -1e-06 -5.01997 -25.033558 -4.031885 6e-06 0.0 -1e-06 -10.634537 -5.686973 -3.565589 10.573274 -17.922951 -3.113899 0.0 -13.821213 3e-06 -0.501777 -31.181505 -4.02702 -11.257036 -58.308903 6.51973 -13.982718 -7.150199 -2.875044 13.772731 -8.401491 -3.218239 0.347731 -34.211555 0.771654 -0.963029 -17.73337 2.621021 0.0 0.0 -0.0 -17.346426 -20.095222 -4.201782 21.757566 -1.638372 3.866431 3e-06 -6.338824 1e-06 -1.697591 -22.591751 -6.194007 -0.0 -4e-06 -6e-06 -115.623833 -80.885254 -54.455944 64.519569 -24.671167 -33.290192 46.743549 -2.415783 -0.668583 60.783051 55.210854 76.568245 22.182116 -20.375887 49.933308 -16.701817 -16.743525 28.476526 -4e-06 -12.690599 -1e-06 16.618864 -18.525396 2.470122 -0.10592 -1.513858 -4.275879 -5.03904 -5.612872 -2.953557 5e-06 -11.020524 -3e-06 -6.111296 -15.895334 -3.84047 -0.0 -0.0 0.0 -10.283367 -5.680289 -4.341839 11.028293 -11.302406 -2.372633 -1.384267 -14.23858 -6.320121 -0.625436 -26.924191 -3.827603 -5.22213 -51.510326 -3.307149 -13.708522 -7.363475 -3.720941 18.141146 -14.052739 -3.242673 7e-06 -18.787273 -2e-06 -0.42971 -8.456041 2.555503 -0.0 1e-06 -0.0 -15.923532 -20.094484 -5.473584 30.419207 -7.190827 1.735926 4e-06 -8.162922 -2e-06 -1.861897 -22.861467 -6.167943 1e-06 -2e-06 -1e-06 139.960052 -1.554583 11.501731 101.70005 -1.691938 0.02981 -38.89584 -7.618579 -13.207682 -2.249052 1.375148 3.005469 -1.000001 1e-06 0.0 -52.858521 1.13861 -2.54537 106.838646 0.780176 -0.30887 -45.071114 30.212376 -6.927804 -1.930548 0.076399 1.649984 -1.000003 0.0 1e-06 
0.0 0.0 0.0 0.0 -0.0 0.0 -23.308104 50.263893 210.654877 86.44265 -46.94899 102.101326 18.623108 -0.037389 -0.117254 -5.045337 -0.608383 -1.321805 21.997278 -0.418893 -3.210281 12.513497 3.935724 3.624012 -2.423654 -1.65283 -0.824662 -24.814625 -4.760362 -0.941621 7e-06 0.0 0.0 -0.270467 0.016257 0.014654 -0.036911 0.056707 0.024827 0.003398 -0.028153 0.010328 53.818485 -76.072716 -43.324657 71.73938 4.283871 -31.88917 14.067861 -0.400067 0.190968 3.221014 65.522385 8.575611 17.636635 -26.322737 52.411201 -19.466661 -14.3956 29.410393 -1e-06 -8.774822 -1e-06 15.330275 -17.880287 5.74042 -0.609776 -1.795654 -3.889328 -4.807087 -11.04681 -2.937851 4e-06 -20.976021 -1e-06 -5.01997 -25.03356 -4.031882 6e-06 0.0 -0.0 -10.634537 -5.686971 -3.565588 10.573278 -17.922955 -3.113901 4e-06 -13.821213 -0.0 -0.501778 -31.181507 -4.027014 -10.967155 -57.660286 6.253919 -13.982718 -7.150198 -2.875042 13.772736 -8.401495 -3.218241 0.347736 -34.211555 0.771655 -0.963029 -17.733376 2.621022 -0.0 -0.0 0.0 -17.346422 -20.095217 -4.201782 21.757566 -1.638376 3.86643 2e-06 -6.338826 1e-06 -1.69759 -22.591753 -6.194008 0.0 -3e-06 -2e-06 -128.090118 -81.08886 -42.68047 62.410416 -21.384602 -37.18058 53.766903 -2.128022 -0.838511 56.068913 53.500454 71.243179 22.182106 -20.375898 49.933319 -16.701817 -16.74353 28.476534 -2e-06 -12.690601 1e-06 15.873664 -18.204582 2.858096 -0.105919 -1.513856 -4.27588 -5.03904 -5.612871 -2.953557 4e-06 -11.020523 -2e-06 -6.111296 -15.89533 -3.84047 -1e-06 -0.0 -0.0 -10.283369 -5.680287 -4.341837 11.028296 -11.302406 -2.372634 -1.38427 -14.238577 -6.32012 -0.625436 -26.924191 -3.827601 -5.10907 -50.943558 -3.406672 -13.708525 -7.363476 -3.720938 18.14115 -14.052739 -3.242674 6e-06 -18.787271 -1e-06 -0.429711 -8.456045 2.555504 0.0 0.0 0.0 -15.923534 -20.094482 -5.473584 30.41921 -7.190826 1.735924 5e-06 -8.162925 -1e-06 -1.861904 -22.861469 -6.16794 -0.0 -3e-06 -2e-06 135.531219 -1.457897 10.415498 108.958878 -1.400913 0.033557 -40.576073 -8.816241 -12.06823 -2.195215 1.535276 3.041062 -1.000002 1e-06 0.0 -49.296143 1.719187 -1.720824 104.332512 0.857263 -0.366492 -43.352337 29.621029 -5.694022 -1.456349 0.057692 1.661029 -1.000004 1e-06 1e-06 
0.0 0.0 0.0 0.0 -0.0 0.0 -23.472452 50.093124 212.709167 87.180656 -45.877094 100.823456 18.95985 -0.269271 0.077627 -4.867041 -0.641678 -1.092839 22.146397 -1.274741 -3.19907 13.146575 4.416957 3.322442 -2.442806 -1.751963 -1.01941 -24.711468 -4.484358 -1.200523 7e-06 0.0 -0.0 -0.255832 0.043359 -0.005351 -0.041887 0.091397 0.011835 0.011956 -0.009996 -0.019771 57.369312 -76.426392 -46.555454 72.327286 3.263542 -32.234188 13.216767 -0.219357 0.260347 5.244134 66.684387 8.54094 17.636629 -26.322744 52.411205 -19.466658 -14.395597 29.410389 -2e-06 -8.774822 -2e-06 15.096648 -17.954889 5.926656 -0.609778 -1.795653 -3.889328 -4.807088 -11.046812 -2.937849 4e-06 -20.976015 2e-06 -5.019972 -25.03356 -4.031878 6e-06 1e-06 1e-06 -10.634534 -5.68697 -3.565588 10.573276 -17.922947 -3.113898 2e-06 -13.821211 3e-06 -0.501782 -31.181507 -4.027014 -10.804203 -57.314747 6.21455 -13.982712 -7.150197 -2.875042 13.772728 -8.401493 -3.21824 0.347733 -34.211555 0.771659 -0.963031 -17.73337 2.621021 0.0 -0.0 0.0 -17.34642 -20.095217 -4.201782 21.757557 -1.638377 3.866429 1e-06 -6.338824 2e-06 -1.697591 -22.591751 -6.194005 0.0 -4e-06 -3e-06 -138.026138 -80.137718 -33.571209 59.727062 -15.911207 -40.351704 55.379616 -1.662326 -0.950134 47.642071 54.274364 61.931156 22.182121 -20.375896 49.933319 -16.701817 -16.743525 28.47653 -2e-06 -12.6906 -0.0 15.221691 -17.88789 3.097591 -0.105919 -1.513856 -4.275881 -5.039041 -5.612873 -2.953557 4e-06 -11.020526 -3e-06 -6.111298 -15.895336 -3.840472 -0.0 1e-06 1e-06 -10.283371 -5.68029 -4.34184 11.028294 -11.302404 -2.372631 -1.384269 -14.238581 -6.320123 -0.625437 -26.924198 -3.827601 -4.722273 -50.272987 -3.54869 -13.708524 -7.363477 -3.720939 18.141148 -14.052739 -3.242674 7e-06 -18.78727 -2e-06 -0.42971 -8.456043 2.555503 -1e-06 -1e-06 -0.0 -15.923536 -20.094484 -5.473584 30.41921 -7.190828 1.735925 3e-06 -8.162927 -1e-06 -1.861901 -22.861473 -6.167944 -1e-06 -1e-06 -1e-06 131.032364 -1.363009 9.048095 115.967117 -0.981551 0.087816 -42.209366 -9.394828 -11.054369 -2.132235 1.663039 3.143846 -1.000001 1e-06 -0.0 -45.835003 2.306198 -0.650664 102.180008 0.982047 -0.364607 -41.959717 28.439688 -4.509233 -1.309818 0.078953 1.670119 -1.000003 0.0 1e-06 
